<svg id="svg" version="1.1" xmlns="http://www.w3.org/2000/svg" xmlns:xlink="http://www.w3.org/1999/xlink" width="400" height="400" viewBox="0, 0, 400,400"><g id="svgg"><path id="path0" d="M327.356 77.044 C 326.940 77.619,326.381 78.294,326.114 78.544 C 325.101 79.493,324.425 80.000,324.170 80.000 C 324.025 80.000,323.209 80.675,322.357 81.500 C 320.172 83.617,319.690 84.000,319.217 84.000 C 318.988 84.000,318.800 84.168,318.800 84.373 C 318.800 84.578,318.419 84.867,317.953 85.015 L 317.106 85.284 317.976 86.142 C 326.585 94.637,340.601 123.133,344.564 140.200 C 344.922 141.740,345.378 143.630,345.577 144.400 C 345.777 145.170,346.124 146.790,346.348 148.000 C 347.667 155.106,348.000 157.344,348.000 159.092 C 348.000 160.163,348.163 161.211,348.362 161.420 C 349.643 162.765,349.678 194.049,348.402 197.000 C 348.212 197.440,347.958 199.060,347.839 200.600 C 347.719 202.140,347.331 205.020,346.975 207.000 C 346.620 208.980,346.245 211.320,346.142 212.200 C 346.039 213.080,345.807 214.160,345.627 214.600 C 345.447 215.040,344.984 216.750,344.599 218.400 C 342.321 228.147,337.772 240.400,332.498 251.000 C 327.593 260.856,324.727 265.615,317.716 275.547 C 303.978 295.008,280.646 315.230,260.000 325.568 C 258.570 326.284,256.860 327.178,256.200 327.554 C 255.175 328.139,251.105 329.978,244.600 332.797 C 239.039 335.207,226.207 339.315,220.667 340.460 C 219.530 340.695,217.790 341.057,216.800 341.265 C 213.944 341.864,211.259 342.311,207.600 342.796 C 205.730 343.044,203.210 343.461,202.000 343.723 C 198.949 344.384,168.257 344.385,165.200 343.724 C 163.097 343.270,157.836 342.512,154.000 342.111 C 153.010 342.007,152.029 341.760,151.820 341.561 C 151.611 341.363,151.045 341.200,150.563 341.200 C 148.998 341.200,139.665 338.687,133.400 336.579 C 120.885 332.368,109.904 326.923,98.600 319.324 C 88.883 312.791,86.636 310.962,78.064 302.600 C 74.274 298.903,71.425 296.411,71.318 296.700 C 71.216 296.975,70.878 297.200,70.567 297.200 C 70.255 297.200,70.000 297.368,70.000 297.573 C 70.000 297.778,69.649 298.057,69.220 298.194 C 68.792 298.330,68.343 298.747,68.223 299.120 C 68.103 299.494,67.059 300.430,65.903 301.200 C 64.746 301.970,63.673 302.780,63.517 303.000 C 62.329 304.680,61.818 305.200,61.358 305.200 C 60.678 305.200,60.045 306.421,60.321 307.200 C 60.609 308.013,69.893 317.200,70.427 317.200 C 70.661 317.200,71.828 318.224,73.021 319.476 C 74.215 320.728,75.505 321.798,75.888 321.854 C 76.272 321.910,76.643 322.130,76.714 322.343 C 76.947 323.041,78.751 324.800,79.235 324.800 C 79.495 324.800,80.125 325.250,80.635 325.800 C 81.145 326.350,81.761 326.800,82.005 326.800 C 82.248 326.800,82.348 326.961,82.226 327.157 C 82.105 327.354,82.454 327.627,83.003 327.765 C 83.551 327.903,84.000 328.192,84.000 328.408 C 84.000 328.623,84.193 328.800,84.429 328.800 C 84.664 328.800,85.108 329.025,85.415 329.300 C 86.648 330.406,87.179 330.800,87.436 330.800 C 87.585 330.800,88.033 331.177,88.432 331.637 C 88.831 332.097,89.314 332.377,89.506 332.258 C 89.698 332.140,90.107 332.393,90.415 332.821 C 90.724 333.250,91.207 333.600,91.488 333.600 C 91.770 333.600,92.000 333.777,92.000 333.992 C 92.000 334.208,92.450 334.498,93.000 334.636 C 93.550 334.774,94.000 335.047,94.000 335.243 C 94.000 335.440,94.341 335.600,94.757 335.600 C 95.174 335.600,95.618 335.870,95.745 336.200 C 95.871 336.530,96.321 336.800,96.745 336.800 C 97.168 336.800,97.622 337.081,97.754 337.425 C 97.886 337.769,98.176 337.939,98.397 337.802 C 98.619 337.665,98.800 337.731,98.800 337.949 C 98.800 338.168,99.205 338.472,99.700 338.627 C 100.195 338.781,100.690 339.028,100.800 339.175 C 101.078 339.546,103.825 340.800,104.360 340.800 C 104.602 340.800,104.800 340.980,104.800 341.200 C 104.800 341.420,105.141 341.600,105.557 341.600 C 105.974 341.600,106.422 341.881,106.554 342.225 C 106.686 342.569,106.976 342.739,107.197 342.602 C 107.419 342.465,107.600 342.551,107.600 342.794 C 107.600 343.037,107.825 343.208,108.100 343.174 C 108.882 343.079,110.400 343.655,110.400 344.047 C 110.400 344.241,110.670 344.400,111.000 344.400 C 111.330 344.400,111.600 344.560,111.600 344.755 C 111.600 344.951,112.230 345.229,113.000 345.374 C 113.770 345.518,114.400 345.808,114.400 346.018 C 114.400 346.228,114.850 346.400,115.400 346.400 C 115.950 346.400,116.400 346.578,116.400 346.795 C 116.400 347.013,117.117 347.305,117.993 347.445 C 118.869 347.585,119.488 347.857,119.369 348.050 C 119.250 348.242,119.613 348.400,120.176 348.400 C 120.739 348.400,121.200 348.557,121.200 348.749 C 121.200 348.941,121.920 349.213,122.800 349.354 C 123.680 349.494,124.400 349.787,124.400 350.005 C 124.400 350.222,124.850 350.400,125.400 350.400 C 125.950 350.400,126.400 350.563,126.400 350.762 C 126.400 350.962,127.300 351.249,128.400 351.400 C 129.500 351.551,130.400 351.838,130.400 352.038 C 130.400 352.237,130.839 352.400,131.376 352.400 C 131.913 352.400,132.449 352.556,132.567 352.747 C 132.686 352.938,133.871 353.218,135.202 353.368 C 136.561 353.522,137.519 353.808,137.387 354.021 C 137.256 354.233,137.782 354.400,138.576 354.400 C 139.359 354.400,140.000 354.580,140.000 354.800 C 140.000 355.020,140.630 355.200,141.400 355.200 C 142.170 355.200,142.800 355.359,142.800 355.553 C 142.800 355.747,144.330 356.033,146.200 356.189 C 148.070 356.344,149.600 356.636,149.600 356.836 C 149.600 357.036,150.421 357.200,151.424 357.200 C 152.537 357.200,153.151 357.356,153.000 357.600 C 152.864 357.820,153.078 358.003,153.476 358.007 C 156.628 358.039,162.225 358.574,162.333 358.854 C 162.407 359.044,164.082 359.200,166.057 359.200 C 168.349 359.200,169.558 359.345,169.400 359.600 C 169.237 359.864,173.796 360.000,182.776 360.000 C 191.592 360.000,196.400 359.859,196.400 359.600 C 196.400 359.365,197.800 359.200,199.800 359.200 C 201.670 359.200,203.200 359.042,203.200 358.848 C 203.200 358.655,205.451 358.366,208.201 358.208 C 210.952 358.049,213.303 357.757,213.425 357.560 C 213.547 357.362,214.267 357.200,215.024 357.200 C 215.781 357.200,216.400 357.046,216.400 356.859 C 216.400 356.671,217.795 356.400,219.500 356.256 C 221.205 356.112,222.660 355.815,222.733 355.597 C 222.807 355.379,223.482 355.200,224.233 355.200 C 224.985 355.200,225.600 355.020,225.600 354.800 C 225.600 354.580,226.230 354.400,227.000 354.400 C 227.770 354.400,228.400 354.238,228.400 354.039 C 228.400 353.841,229.480 353.553,230.799 353.400 C 232.119 353.247,233.098 352.959,232.976 352.761 C 232.853 352.562,233.393 352.400,234.176 352.400 C 234.959 352.400,235.600 352.237,235.600 352.038 C 235.600 351.838,236.500 351.551,237.600 351.400 C 238.700 351.249,239.600 350.962,239.600 350.762 C 239.600 350.563,240.140 350.400,240.800 350.400 C 241.460 350.400,242.000 350.243,242.000 350.051 C 242.000 349.859,242.720 349.587,243.600 349.446 C 244.480 349.306,245.200 349.013,245.200 348.795 C 245.200 348.578,245.650 348.400,246.200 348.400 C 246.750 348.400,247.200 348.222,247.200 348.005 C 247.200 347.787,247.920 347.494,248.800 347.354 C 249.680 347.213,250.400 346.941,250.400 346.749 C 250.400 346.557,250.760 346.400,251.200 346.400 C 251.640 346.400,252.000 346.220,252.000 346.000 C 252.000 345.780,252.135 345.634,252.300 345.676 C 252.922 345.834,255.200 345.121,255.200 344.768 C 255.200 344.566,255.470 344.400,255.800 344.400 C 256.130 344.400,256.400 344.220,256.400 344.000 C 256.400 343.780,256.760 343.600,257.200 343.600 C 257.640 343.600,258.000 343.426,258.000 343.213 C 258.000 342.999,258.270 342.929,258.600 343.055 C 258.930 343.182,259.200 343.086,259.200 342.843 C 259.200 342.599,259.650 342.400,260.200 342.400 C 260.750 342.400,261.200 342.220,261.200 342.000 C 261.200 341.780,261.571 341.600,262.024 341.600 C 262.477 341.600,262.742 341.429,262.612 341.220 C 262.483 341.011,263.011 340.722,263.785 340.576 C 264.560 340.431,265.094 340.152,264.973 339.956 C 264.852 339.760,265.033 339.600,265.376 339.600 C 265.719 339.600,266.000 339.428,266.000 339.218 C 266.000 339.008,266.630 338.718,267.400 338.574 C 268.170 338.429,268.800 338.151,268.800 337.955 C 268.800 337.760,269.070 337.600,269.400 337.600 C 269.730 337.600,270.000 337.443,270.000 337.250 C 270.000 337.058,270.552 336.790,271.227 336.655 C 271.929 336.514,272.343 336.232,272.197 335.995 C 272.056 335.767,272.089 335.606,272.270 335.637 C 273.146 335.790,274.023 335.561,273.820 335.233 C 273.695 335.030,274.143 334.744,274.816 334.597 C 275.488 334.449,276.253 333.984,276.515 333.564 C 276.778 333.144,277.315 332.800,277.709 332.800 C 278.103 332.800,278.529 332.530,278.655 332.200 C 278.782 331.870,279.214 331.600,279.616 331.600 C 280.017 331.600,280.460 331.240,280.600 330.800 C 280.740 330.360,281.193 330.000,281.607 330.000 C 282.021 330.000,282.544 329.685,282.768 329.300 C 283.057 328.805,283.179 328.764,283.188 329.162 C 283.195 329.506,283.555 329.311,284.113 328.662 C 284.615 328.078,285.323 327.600,285.686 327.600 C 286.049 327.600,286.460 327.240,286.600 326.800 C 286.740 326.360,287.189 326.000,287.598 326.000 C 288.007 326.000,288.696 325.550,289.129 325.000 C 289.561 324.450,290.179 324.000,290.502 324.000 C 290.824 324.000,291.426 323.550,291.839 323.000 C 292.252 322.450,292.809 322.000,293.077 322.000 C 293.652 322.000,295.600 320.133,295.600 319.582 C 295.600 319.372,295.954 319.200,296.386 319.200 C 296.819 319.200,297.725 318.660,298.400 318.000 C 299.075 317.340,299.725 316.800,299.844 316.800 C 299.963 316.800,301.306 315.540,302.827 314.000 C 304.349 312.460,305.782 311.200,306.012 311.200 C 306.511 311.200,316.000 301.658,316.000 301.157 C 316.000 300.554,317.353 299.200,317.956 299.200 C 318.273 299.200,318.426 299.092,318.294 298.961 C 318.163 298.829,318.966 297.839,320.079 296.761 C 321.192 295.682,321.872 294.800,321.590 294.800 C 321.308 294.800,321.510 294.445,322.039 294.010 C 322.567 293.576,323.180 293.027,323.400 292.790 C 323.620 292.554,324.205 291.977,324.700 291.508 C 325.195 291.039,325.600 290.413,325.600 290.115 C 325.600 289.818,325.870 289.471,326.200 289.345 C 326.530 289.218,326.800 288.839,326.800 288.503 C 326.800 288.167,327.250 287.475,327.800 286.965 C 328.350 286.455,328.800 285.841,328.800 285.600 C 328.800 285.359,329.250 284.745,329.800 284.235 C 330.350 283.725,330.800 283.186,330.800 283.036 C 330.800 282.886,331.250 282.314,331.800 281.764 C 332.350 281.214,332.800 280.491,332.800 280.158 C 332.800 279.825,332.980 279.664,333.200 279.800 C 333.420 279.936,333.600 279.767,333.600 279.424 C 333.600 279.081,333.760 278.800,333.957 278.800 C 334.153 278.800,334.426 278.350,334.564 277.800 C 334.702 277.250,334.992 276.800,335.208 276.800 C 335.423 276.800,335.600 276.530,335.600 276.200 C 335.600 275.870,335.777 275.600,335.992 275.600 C 336.208 275.600,336.498 275.150,336.636 274.600 C 336.774 274.050,337.047 273.600,337.243 273.600 C 337.440 273.600,337.600 273.259,337.600 272.843 C 337.600 272.426,337.870 271.982,338.200 271.855 C 338.530 271.729,338.800 271.259,338.800 270.813 C 338.800 270.366,338.980 270.000,339.200 270.000 C 339.420 270.000,339.603 269.685,339.606 269.300 C 339.611 268.758,339.689 268.722,339.954 269.140 C 340.194 269.518,340.377 269.249,340.566 268.240 C 340.715 267.448,341.008 266.800,341.218 266.800 C 341.428 266.800,341.603 266.395,341.606 265.900 C 341.611 265.172,341.686 265.115,342.000 265.600 C 342.304 266.071,342.389 265.972,342.394 265.143 C 342.397 264.557,342.679 263.978,343.025 263.846 C 343.369 263.714,343.548 263.439,343.422 263.235 C 343.296 263.031,343.464 262.593,343.796 262.261 C 344.128 261.929,344.400 261.464,344.400 261.229 C 344.400 260.993,344.560 260.800,344.755 260.800 C 344.951 260.800,345.229 260.170,345.374 259.400 C 345.518 258.630,345.808 258.000,346.018 258.000 C 346.228 258.000,346.400 257.730,346.400 257.400 C 346.400 257.070,346.560 256.800,346.755 256.800 C 346.951 256.800,347.229 256.170,347.374 255.400 C 347.518 254.630,347.764 254.000,347.920 254.000 C 348.285 254.000,349.057 252.173,349.398 250.500 C 349.544 249.785,349.829 249.200,350.032 249.200 C 350.234 249.200,350.400 248.930,350.400 248.600 C 350.400 248.270,350.556 248.000,350.747 248.000 C 350.938 248.000,351.197 247.239,351.322 246.309 C 351.446 245.378,351.740 244.553,351.974 244.475 C 352.208 244.397,352.400 243.898,352.400 243.367 C 352.400 242.835,352.578 242.400,352.795 242.400 C 353.013 242.400,353.306 241.680,353.446 240.800 C 353.587 239.920,353.859 239.200,354.051 239.200 C 354.243 239.200,354.400 238.750,354.400 238.200 C 354.400 237.650,354.580 237.200,354.800 237.200 C 355.020 237.200,355.200 236.660,355.200 236.000 C 355.200 235.340,355.363 234.800,355.562 234.800 C 355.762 234.800,356.049 233.900,356.200 232.800 C 356.351 231.700,356.638 230.800,356.838 230.800 C 357.037 230.800,357.200 230.350,357.200 229.800 C 357.200 229.250,357.359 228.800,357.554 228.800 C 357.749 228.800,358.032 227.810,358.183 226.600 C 358.334 225.390,358.625 224.400,358.829 224.400 C 359.033 224.400,359.200 223.770,359.200 223.000 C 359.200 222.230,359.361 221.600,359.558 221.600 C 359.755 221.600,360.044 220.160,360.200 218.400 C 360.356 216.640,360.645 215.200,360.842 215.200 C 361.039 215.200,361.200 214.480,361.200 213.600 C 361.200 212.720,361.366 212.000,361.568 212.000 C 361.770 212.000,362.063 210.200,362.219 208.000 C 362.375 205.800,362.660 204.000,362.852 204.000 C 363.043 204.000,363.200 202.845,363.200 201.433 C 363.200 199.736,363.369 198.810,363.700 198.700 C 364.091 198.570,364.200 194.151,364.200 178.400 C 364.200 162.649,364.091 158.230,363.700 158.100 C 363.375 157.992,363.200 157.104,363.200 155.567 C 363.200 154.265,363.042 153.200,362.848 153.200 C 362.654 153.200,362.367 151.310,362.209 149.000 C 362.051 146.673,361.762 144.900,361.562 145.024 C 361.363 145.147,361.200 144.337,361.200 143.224 C 361.200 142.111,361.034 141.200,360.832 141.200 C 360.629 141.200,360.338 140.030,360.185 138.600 C 360.032 137.170,359.748 136.000,359.553 136.000 C 359.359 136.000,359.200 135.316,359.200 134.480 C 359.200 133.644,359.020 132.780,358.799 132.559 C 358.579 132.339,358.289 131.358,358.154 130.379 C 358.020 129.401,357.750 128.540,357.555 128.467 C 357.360 128.393,357.200 127.988,357.200 127.567 C 357.200 127.145,357.020 126.800,356.800 126.800 C 356.580 126.800,356.400 126.361,356.400 125.824 C 356.400 125.287,356.244 124.751,356.054 124.633 C 355.863 124.515,355.794 123.965,355.900 123.410 C 356.013 122.818,355.908 122.400,355.647 122.400 C 355.401 122.400,355.200 121.950,355.200 121.400 C 355.200 120.850,355.020 120.400,354.800 120.400 C 354.580 120.400,354.400 119.939,354.400 119.376 C 354.400 118.813,354.232 118.457,354.026 118.584 C 353.820 118.711,353.529 118.002,353.380 117.008 C 353.231 116.013,352.950 115.200,352.755 115.200 C 352.560 115.200,352.400 114.840,352.400 114.400 C 352.400 113.960,352.220 113.600,352.000 113.600 C 351.780 113.600,351.634 113.465,351.676 113.300 C 351.834 112.678,351.121 110.400,350.768 110.400 C 350.566 110.400,350.400 110.130,350.400 109.800 C 350.400 109.470,350.240 109.200,350.045 109.200 C 349.849 109.200,349.571 108.570,349.426 107.800 C 349.282 107.030,348.992 106.400,348.782 106.400 C 348.572 106.400,348.400 105.939,348.400 105.376 C 348.400 104.796,348.227 104.460,348.000 104.600 C 347.780 104.736,347.578 104.567,347.550 104.224 C 347.523 103.881,347.455 103.420,347.400 103.200 C 347.345 102.980,347.278 102.609,347.250 102.376 C 347.223 102.143,347.020 102.064,346.800 102.200 C 346.580 102.336,346.400 102.077,346.400 101.624 C 346.400 101.171,346.220 100.800,346.000 100.800 C 345.780 100.800,345.600 100.530,345.600 100.200 C 345.600 99.870,345.437 99.600,345.237 99.600 C 345.038 99.600,344.976 99.212,345.100 98.737 C 345.255 98.146,345.180 97.965,344.863 98.161 C 344.570 98.342,344.400 98.146,344.400 97.624 C 344.400 97.171,344.234 96.800,344.032 96.800 C 343.829 96.800,343.545 96.258,343.399 95.597 C 343.254 94.935,342.970 94.495,342.767 94.620 C 342.565 94.745,342.400 94.567,342.400 94.224 C 342.400 93.881,342.220 93.600,342.000 93.600 C 341.780 93.600,341.600 93.259,341.600 92.843 C 341.600 92.426,341.330 91.982,341.000 91.855 C 340.670 91.729,340.400 91.159,340.400 90.589 C 340.400 90.000,340.227 89.659,340.000 89.800 C 339.780 89.936,339.600 89.782,339.600 89.457 C 339.600 89.132,339.410 88.803,339.178 88.726 C 338.946 88.649,338.712 88.281,338.657 87.908 C 338.602 87.535,338.150 86.877,337.653 86.446 C 337.155 86.014,336.804 85.563,336.874 85.443 C 336.943 85.324,336.685 84.858,336.300 84.408 C 335.915 83.959,335.600 83.413,335.600 83.195 C 335.600 82.978,335.423 82.800,335.208 82.800 C 334.992 82.800,334.703 82.351,334.565 81.803 C 334.427 81.254,334.154 80.905,333.957 81.026 C 333.761 81.148,333.600 81.006,333.600 80.712 C 333.600 80.417,333.250 79.924,332.821 79.615 C 332.393 79.307,332.140 78.898,332.258 78.706 C 332.377 78.514,332.052 78.010,331.537 77.586 C 331.022 77.162,330.383 76.631,330.117 76.407 C 329.278 75.700,328.139 75.963,327.356 77.044 M314.797 87.603 C 314.288 88.044,313.979 88.512,314.110 88.643 C 314.241 88.774,314.853 88.413,315.470 87.840 C 316.777 86.628,316.169 86.413,314.797 87.603 M310.301 91.564 C 309.233 92.182,308.852 92.800,309.539 92.800 C 309.968 92.800,311.785 91.241,311.564 91.062 C 311.474 90.989,310.905 91.215,310.301 91.564 M79.613 289.091 C 79.089 289.682,79.103 289.723,79.746 289.476 C 80.142 289.324,80.541 289.200,80.633 289.200 C 80.725 289.200,80.800 289.020,80.800 288.800 C 80.800 288.212,80.281 288.339,79.613 289.091 M76.222 292.124 C 74.876 292.948,73.824 294.000,74.346 294.000 C 74.620 294.000,75.419 293.461,76.122 292.802 C 77.473 291.536,77.501 291.340,76.222 292.124 " stroke="none" fill="#73cb2c" fill-rule="evenodd"></path><path id="path1" d="M315.800 87.431 C 315.140 88.175,314.310 88.788,313.956 88.792 C 313.602 88.796,312.972 89.273,312.556 89.850 C 311.430 91.414,310.018 92.800,309.550 92.800 C 308.992 92.800,306.000 95.853,306.000 96.423 C 306.000 96.672,306.351 97.370,306.780 97.973 C 310.665 103.428,317.743 117.495,320.983 126.200 C 321.801 128.400,322.626 130.560,322.814 131.000 C 323.360 132.271,325.866 140.642,326.947 144.800 C 331.664 162.946,332.901 185.481,330.208 204.200 C 329.593 208.474,329.407 209.552,328.410 214.600 C 327.401 219.713,324.351 230.387,322.811 234.200 C 322.633 234.640,321.815 236.710,320.992 238.800 C 319.282 243.143,315.013 252.123,313.274 255.034 C 308.588 262.880,306.555 265.995,303.248 270.392 C 294.705 281.752,285.747 290.748,275.130 298.630 C 262.390 308.087,255.633 311.780,238.200 318.811 C 233.860 320.562,224.587 323.183,217.000 324.805 C 200.658 328.297,179.441 328.449,160.800 325.207 C 152.000 323.676,138.374 319.724,130.329 316.368 C 128.718 315.696,126.860 314.948,126.200 314.706 C 124.533 314.096,111.445 307.548,111.200 307.202 C 111.090 307.047,110.820 306.848,110.600 306.760 C 110.252 306.621,106.003 304.168,104.071 302.991 C 98.691 299.715,91.975 294.819,86.151 289.928 C 82.392 286.772,82.627 286.843,81.140 288.400 C 80.509 289.060,79.784 289.600,79.529 289.600 C 79.273 289.600,78.150 290.570,77.032 291.756 C 75.914 292.941,74.595 294.033,74.100 294.183 C 73.605 294.332,73.200 294.609,73.200 294.798 C 73.200 294.988,72.899 295.444,72.531 295.812 C 71.565 296.778,83.780 308.779,91.532 314.480 C 108.479 326.943,124.983 334.806,145.143 340.024 C 147.641 340.671,150.080 341.200,150.563 341.200 C 151.045 341.200,151.611 341.363,151.820 341.561 C 152.029 341.760,153.010 342.007,154.000 342.111 C 157.836 342.512,163.097 343.270,165.200 343.724 C 168.257 344.385,198.949 344.384,202.000 343.723 C 203.210 343.461,205.730 343.044,207.600 342.796 C 211.259 342.311,213.944 341.864,216.800 341.265 C 217.790 341.057,219.530 340.695,220.667 340.460 C 226.207 339.315,239.039 335.207,244.600 332.797 C 251.105 329.978,255.175 328.139,256.200 327.554 C 256.860 327.178,258.570 326.284,260.000 325.568 C 280.646 315.230,303.978 295.008,317.716 275.547 C 324.727 265.615,327.593 260.856,332.498 251.000 C 337.772 240.400,342.321 228.147,344.599 218.400 C 344.984 216.750,345.447 215.040,345.627 214.600 C 345.807 214.160,346.039 213.080,346.142 212.200 C 346.245 211.320,346.620 208.980,346.975 207.000 C 347.331 205.020,347.719 202.140,347.839 200.600 C 347.958 199.060,348.212 197.440,348.402 197.000 C 349.678 194.049,349.643 162.765,348.362 161.420 C 348.163 161.211,348.000 160.163,348.000 159.092 C 348.000 157.344,347.667 155.106,346.348 148.000 C 346.124 146.790,345.777 145.170,345.577 144.400 C 345.378 143.630,344.922 141.740,344.564 140.200 C 340.934 124.566,330.963 103.328,320.881 89.754 C 317.557 85.278,317.664 85.328,315.800 87.431 M363.200 157.400 C 363.200 157.730,363.380 158.000,363.600 158.000 C 363.820 158.000,364.000 157.730,364.000 157.400 C 364.000 157.070,363.820 156.800,363.600 156.800 C 363.380 156.800,363.200 157.070,363.200 157.400 M363.200 199.400 C 363.200 199.730,363.380 200.000,363.600 200.000 C 363.820 200.000,364.000 199.730,364.000 199.400 C 364.000 199.070,363.820 198.800,363.600 198.800 C 363.380 198.800,363.200 199.070,363.200 199.400 M362.400 204.600 C 362.400 204.930,362.580 205.200,362.800 205.200 C 363.020 205.200,363.200 204.930,363.200 204.600 C 363.200 204.270,363.020 204.000,362.800 204.000 C 362.580 204.000,362.400 204.270,362.400 204.600 M321.613 294.291 C 321.089 294.882,321.103 294.923,321.746 294.676 C 322.142 294.524,322.541 294.400,322.633 294.400 C 322.725 294.400,322.800 294.220,322.800 294.000 C 322.800 293.412,322.281 293.539,321.613 294.291 M316.660 300.038 C 315.625 301.247,316.088 301.384,317.201 300.198 C 317.717 299.649,317.968 299.200,317.759 299.200 C 317.549 299.200,317.055 299.577,316.660 300.038 M304.982 311.715 C 303.955 312.906,303.928 313.293,304.922 312.568 C 305.944 311.823,306.311 311.184,305.700 311.215 C 305.535 311.224,305.212 311.449,304.982 311.715 M71.200 318.200 C 72.094 319.151,72.400 319.371,72.400 319.061 C 72.400 318.753,70.884 317.200,70.583 317.200 C 70.406 317.200,70.683 317.650,71.200 318.200 M295.443 319.833 C 295.067 320.811,295.149 320.908,295.800 320.257 C 296.480 319.577,296.567 319.200,296.043 319.200 C 295.846 319.200,295.576 319.485,295.443 319.833 M216.400 356.800 C 216.400 357.020,216.670 357.200,217.000 357.200 C 217.330 357.200,217.600 357.020,217.600 356.800 C 217.600 356.580,217.330 356.400,217.000 356.400 C 216.670 356.400,216.400 356.580,216.400 356.800 M160.800 358.800 C 160.800 359.020,161.160 359.200,161.600 359.200 C 162.040 359.200,162.400 359.020,162.400 358.800 C 162.400 358.580,162.040 358.400,161.600 358.400 C 161.160 358.400,160.800 358.580,160.800 358.800 M203.200 358.800 C 203.200 359.020,203.459 359.200,203.776 359.200 C 204.093 359.200,204.464 359.020,204.600 358.800 C 204.736 358.580,204.477 358.400,204.024 358.400 C 203.571 358.400,203.200 358.580,203.200 358.800 M167.800 359.600 C 167.936 359.820,168.296 360.000,168.600 360.000 C 168.904 360.000,169.264 359.820,169.400 359.600 C 169.541 359.372,169.196 359.200,168.600 359.200 C 168.004 359.200,167.659 359.372,167.800 359.600 M196.400 359.600 C 196.400 359.820,196.659 360.000,196.976 360.000 C 197.293 360.000,197.664 359.820,197.800 359.600 C 197.936 359.380,197.677 359.200,197.224 359.200 C 196.771 359.200,196.400 359.380,196.400 359.600 " stroke="none" fill="#f7f9f5" fill-rule="evenodd"></path><path id="path2" d="M304.389 97.086 C 303.845 97.463,303.057 98.202,302.637 98.729 C 301.254 100.464,300.323 101.145,299.656 100.907 C 299.295 100.778,299.125 100.811,299.278 100.981 C 299.605 101.344,295.921 105.200,295.247 105.200 C 294.994 105.200,293.944 106.105,292.912 107.211 C 291.881 108.318,290.817 109.138,290.548 109.035 C 290.279 108.932,289.555 109.512,288.939 110.324 C 287.467 112.266,286.316 113.217,285.701 113.001 C 285.426 112.905,284.887 113.315,284.502 113.913 C 283.395 115.631,282.091 116.810,280.796 117.261 C 280.138 117.491,279.600 117.812,279.600 117.975 C 279.600 118.602,277.066 121.200,276.449 121.205 C 276.092 121.207,275.020 122.107,274.066 123.205 C 273.112 124.302,271.987 125.200,271.566 125.200 C 271.145 125.200,270.800 125.336,270.800 125.502 C 270.800 126.007,267.635 129.200,267.135 129.200 C 266.878 129.200,265.827 130.100,264.800 131.200 C 263.707 132.371,262.584 133.200,262.093 133.200 C 261.614 133.200,261.148 133.533,261.008 133.975 C 260.717 134.893,258.188 137.200,257.474 137.200 C 257.201 137.200,256.712 137.591,256.388 138.069 C 255.218 139.798,253.166 141.562,252.585 141.339 C 252.263 141.215,252.000 141.311,252.000 141.550 C 252.000 142.439,248.540 145.628,247.859 145.367 C 247.496 145.228,247.200 145.310,247.200 145.550 C 247.200 146.236,243.807 149.600,243.115 149.600 C 242.772 149.600,242.203 150.041,241.850 150.581 C 240.868 152.078,239.088 153.600,238.318 153.600 C 237.939 153.600,237.419 153.991,237.163 154.469 C 236.431 155.837,234.900 157.207,233.596 157.661 C 232.938 157.891,232.400 158.312,232.400 158.598 C 232.400 159.208,229.793 161.589,229.086 161.624 C 228.819 161.638,227.970 162.446,227.200 163.420 C 226.394 164.440,225.333 165.300,224.700 165.446 C 224.095 165.586,223.600 165.858,223.600 166.050 C 223.600 166.731,220.389 169.600,219.627 169.600 C 219.202 169.600,218.743 169.949,218.608 170.375 C 218.271 171.437,215.739 173.600,214.835 173.600 C 214.403 173.600,213.904 174.067,213.631 174.724 C 213.375 175.342,212.792 176.107,212.334 176.424 C 211.876 176.741,211.254 177.238,210.951 177.529 C 210.572 177.892,210.400 177.913,210.400 177.595 C 210.400 177.340,209.995 177.612,209.500 178.198 C 207.364 180.729,205.708 182.114,205.195 181.797 C 204.978 181.663,204.800 181.754,204.800 182.000 C 204.800 182.555,201.345 186.000,200.789 186.000 C 200.565 186.000,199.524 186.900,198.474 188.000 C 197.425 189.100,196.280 190.000,195.929 190.000 C 195.579 190.000,195.005 190.438,194.654 190.974 C 193.566 192.635,191.999 194.000,191.182 194.000 C 190.752 194.000,190.400 194.201,190.400 194.447 C 190.400 195.015,187.344 198.000,186.763 198.000 C 186.523 198.000,185.618 198.792,184.752 199.759 C 183.886 200.727,182.732 201.631,182.189 201.767 C 181.645 201.904,181.200 202.176,181.200 202.373 C 181.200 203.062,178.521 205.483,177.465 205.748 C 176.879 205.895,176.400 206.163,176.400 206.343 C 176.400 206.963,173.898 209.600,173.310 209.600 C 172.986 209.600,171.884 210.481,170.861 211.558 C 169.837 212.636,168.484 213.634,167.853 213.778 C 167.222 213.921,166.806 214.139,166.929 214.262 C 167.321 214.654,164.606 217.600,163.853 217.600 C 163.572 217.600,162.503 218.500,161.477 219.600 C 160.452 220.700,159.406 221.600,159.153 221.600 C 158.900 221.600,157.796 222.588,156.700 223.795 C 155.605 225.003,154.539 225.886,154.333 225.758 C 154.126 225.631,153.598 225.948,153.158 226.463 C 151.201 228.757,149.899 230.000,149.453 230.000 C 149.189 230.000,148.175 230.899,147.202 231.998 C 146.228 233.097,145.224 233.952,144.970 233.898 C 144.716 233.844,143.597 234.769,142.483 235.954 C 140.971 237.563,140.277 238.038,139.741 237.833 C 139.347 237.681,139.143 237.676,139.288 237.821 C 139.433 237.966,139.108 238.561,138.567 239.142 C 138.025 239.724,137.271 240.536,136.891 240.946 C 136.511 241.356,135.705 241.868,135.100 242.085 C 134.495 242.301,134.000 242.622,134.000 242.797 C 134.000 243.460,131.609 245.638,130.430 246.050 C 129.753 246.285,129.200 246.612,129.200 246.775 C 129.200 247.450,126.642 250.000,125.965 250.000 C 125.562 250.000,125.051 250.225,124.830 250.500 C 122.710 253.137,121.805 254.000,121.159 254.000 C 120.741 254.000,120.400 254.151,120.400 254.335 C 120.400 255.047,117.190 258.000,116.416 258.000 C 115.967 258.000,115.600 258.180,115.600 258.400 C 115.600 259.152,112.494 262.000,111.674 262.000 C 111.223 262.000,110.748 262.335,110.618 262.744 C 110.316 263.695,107.513 266.304,106.983 266.128 C 106.762 266.054,106.315 266.384,105.991 266.861 C 104.888 268.480,102.703 270.338,102.150 270.126 C 101.848 270.009,101.600 270.082,101.600 270.288 C 101.600 270.919,98.204 274.400,97.584 274.405 C 97.263 274.407,96.220 275.307,95.266 276.405 C 94.312 277.502,93.208 278.400,92.812 278.400 C 92.416 278.400,91.822 278.805,91.492 279.300 C 90.310 281.074,89.281 282.014,88.050 282.442 C 87.363 282.682,86.800 283.013,86.800 283.178 C 86.800 283.797,85.226 285.263,84.826 285.016 C 84.578 284.863,84.503 285.003,84.641 285.362 C 84.800 285.776,84.546 286.048,83.836 286.227 C 83.266 286.370,82.800 286.628,82.800 286.800 C 82.800 287.848,97.184 298.796,104.071 302.991 C 106.003 304.168,110.252 306.621,110.600 306.760 C 110.820 306.848,111.090 307.047,111.200 307.202 C 111.445 307.548,124.533 314.096,126.200 314.706 C 126.860 314.948,128.718 315.696,130.329 316.368 C 138.374 319.724,152.000 323.676,160.800 325.207 C 179.441 328.449,200.658 328.297,217.000 324.805 C 224.587 323.183,233.860 320.562,238.200 318.811 C 255.633 311.780,262.390 308.087,275.130 298.630 C 285.747 290.748,294.705 281.752,303.248 270.392 C 306.555 265.995,308.588 262.880,313.274 255.034 C 315.013 252.123,319.282 243.143,320.992 238.800 C 321.815 236.710,322.633 234.640,322.811 234.200 C 324.351 230.387,327.401 219.713,328.410 214.600 C 329.407 209.552,329.593 208.474,330.208 204.200 C 332.901 185.481,331.664 162.946,326.947 144.800 C 325.866 140.642,323.360 132.271,322.814 131.000 C 322.626 130.560,321.801 128.400,320.983 126.200 C 317.725 117.447,311.740 105.528,306.774 97.905 C 305.646 96.174,305.685 96.187,304.389 97.086 M262.800 154.218 C 271.215 157.051,274.349 163.372,268.729 166.176 C 267.308 166.884,261.405 167.056,261.000 166.400 C 260.864 166.180,260.466 166.000,260.116 166.000 C 256.866 166.000,251.600 160.987,251.600 157.893 C 251.600 154.440,257.606 152.469,262.800 154.218 M230.421 189.879 C 239.405 194.326,242.051 207.671,233.661 206.222 C 229.596 205.520,223.200 199.746,223.200 196.779 C 223.200 196.376,223.020 195.936,222.800 195.800 C 222.580 195.664,222.400 194.789,222.400 193.856 C 222.400 189.252,225.775 187.578,230.421 189.879 M267.000 192.603 C 274.173 196.048,278.125 205.531,273.335 207.804 C 265.648 211.452,253.397 195.631,260.955 191.819 C 262.475 191.052,264.252 191.283,267.000 192.603 M197.940 215.892 C 205.028 219.249,208.316 232.501,202.383 233.804 C 197.505 234.875,190.800 227.063,190.800 220.308 C 190.800 216.134,194.118 214.082,197.940 215.892 M154.916 238.858 C 163.229 243.095,164.922 258.609,156.941 257.412 C 149.909 256.358,145.298 241.658,151.000 238.471 C 152.175 237.815,153.035 237.900,154.916 238.858 M241.797 239.016 C 244.021 240.068,248.400 244.065,248.400 245.043 C 248.400 245.350,248.538 245.600,248.706 245.600 C 248.874 245.600,249.324 246.479,249.706 247.554 C 253.442 258.073,240.186 257.675,235.192 247.117 C 231.982 240.333,235.489 236.032,241.797 239.016 M189.488 257.648 C 193.460 259.875,196.234 265.198,196.133 270.400 C 196.001 277.153,190.970 278.983,186.581 273.876 C 180.235 266.492,182.519 253.741,189.488 257.648 " stroke="none" fill="#fb2761" fill-rule="evenodd"></path><path id="path3" d="M328.800 75.600 C 328.800 75.820,329.070 76.000,329.400 76.000 C 329.730 76.000,330.000 75.820,330.000 75.600 C 330.000 75.380,329.730 75.200,329.400 75.200 C 329.070 75.200,328.800 75.380,328.800 75.600 M324.843 78.823 C 324.317 79.261,323.994 79.727,324.124 79.858 C 324.255 79.988,324.653 79.804,325.010 79.448 C 325.366 79.091,325.824 78.800,326.029 78.800 C 326.233 78.800,326.400 78.620,326.400 78.400 C 326.400 77.802,325.910 77.935,324.843 78.823 M320.232 82.822 C 319.809 83.248,319.584 83.717,319.732 83.865 C 319.879 84.013,320.000 83.935,320.000 83.694 C 320.000 83.452,320.360 83.140,320.800 83.000 C 321.240 82.860,321.600 82.578,321.600 82.373 C 321.600 81.798,321.077 81.970,320.232 82.822 M316.412 85.984 C 316.088 86.189,315.944 86.478,316.093 86.626 C 316.241 86.774,316.653 86.604,317.010 86.248 C 317.713 85.544,317.357 85.387,316.412 85.984 M311.612 89.984 C 311.288 90.189,311.144 90.478,311.293 90.626 C 311.441 90.774,311.853 90.604,312.210 90.248 C 312.913 89.544,312.557 89.387,311.612 89.984 M293.200 105.939 C 293.200 106.125,292.795 106.473,292.300 106.712 C 291.805 106.951,291.605 107.158,291.856 107.173 C 292.106 107.188,292.736 106.846,293.256 106.413 C 293.775 105.981,293.975 105.621,293.700 105.613 C 293.425 105.606,293.200 105.752,293.200 105.939 M288.013 110.291 C 287.489 110.882,287.503 110.923,288.146 110.676 C 288.542 110.524,288.941 110.400,289.033 110.400 C 289.125 110.400,289.200 110.220,289.200 110.000 C 289.200 109.412,288.681 109.539,288.013 110.291 M283.429 114.229 C 283.005 114.538,282.772 114.905,282.910 115.043 C 283.049 115.182,283.462 114.995,283.829 114.629 C 284.691 113.766,284.425 113.500,283.429 114.229 M264.412 130.384 C 264.088 130.589,263.944 130.878,264.093 131.026 C 264.241 131.174,264.653 131.004,265.010 130.648 C 265.713 129.944,265.357 129.787,264.412 130.384 M259.600 134.600 C 259.322 134.935,259.279 135.200,259.502 135.200 C 259.722 135.200,260.126 134.930,260.400 134.600 C 260.678 134.265,260.721 134.000,260.498 134.000 C 260.278 134.000,259.874 134.270,259.600 134.600 M245.200 147.125 C 244.650 147.687,244.515 147.912,244.900 147.624 C 245.285 147.337,245.605 147.259,245.612 147.451 C 245.619 147.643,245.815 147.471,246.049 147.070 C 246.693 145.961,246.316 145.986,245.200 147.125 M240.860 150.642 C 240.131 151.466,240.600 151.857,241.381 151.076 C 241.721 150.736,242.000 150.354,242.000 150.229 C 242.000 149.809,241.406 150.024,240.860 150.642 M236.229 154.629 C 235.805 154.938,235.572 155.305,235.710 155.443 C 235.849 155.582,236.262 155.395,236.629 155.029 C 237.491 154.166,237.225 153.900,236.229 154.629 M255.386 154.246 C 250.799 155.301,251.242 160.532,256.191 163.749 C 265.417 169.748,275.852 164.804,268.677 157.834 C 265.973 155.206,259.181 153.373,255.386 154.246 M217.213 171.091 C 216.689 171.682,216.703 171.723,217.346 171.476 C 217.742 171.324,218.141 171.200,218.233 171.200 C 218.325 171.200,218.400 171.020,218.400 170.800 C 218.400 170.212,217.881 170.339,217.213 171.091 M212.200 175.257 L 211.400 176.067 212.500 175.569 C 213.105 175.296,213.600 174.920,213.600 174.736 C 213.600 174.189,213.054 174.393,212.200 175.257 M225.275 189.487 C 223.784 189.769,222.717 191.867,222.952 194.052 C 223.990 203.710,238.234 210.632,238.188 201.457 C 238.156 195.262,230.797 188.440,225.275 189.487 M193.700 190.998 C 192.957 191.842,193.094 192.073,194.000 191.507 C 194.440 191.232,194.800 190.871,194.800 190.704 C 194.800 190.227,194.249 190.375,193.700 190.998 M261.608 192.046 C 254.942 194.706,262.603 207.648,270.911 207.761 C 279.221 207.874,273.920 194.796,264.554 192.078 C 262.667 191.530,262.896 191.533,261.608 192.046 M184.800 198.820 L 183.800 199.622 184.900 199.147 C 185.505 198.885,186.000 198.520,186.000 198.336 C 186.000 197.879,185.945 197.902,184.800 198.820 M193.891 215.756 C 187.768 218.467,193.871 233.171,201.161 233.272 C 205.593 233.333,206.513 228.465,203.281 222.055 C 202.105 219.722,198.603 216.222,197.124 215.903 C 196.616 215.793,195.930 215.604,195.600 215.484 C 195.270 215.364,194.501 215.486,193.891 215.756 M161.029 219.029 C 159.841 220.216,160.278 220.347,161.600 219.200 C 162.107 218.760,162.328 218.400,162.090 218.400 C 161.852 218.400,161.374 218.683,161.029 219.029 M142.000 235.470 L 141.000 236.492 142.100 235.800 C 142.705 235.419,143.200 234.949,143.200 234.754 C 143.200 234.270,143.140 234.305,142.000 235.470 M137.829 239.029 C 137.405 239.338,137.172 239.705,137.310 239.843 C 137.449 239.982,137.862 239.795,138.229 239.429 C 139.091 238.566,138.825 238.300,137.829 239.029 M236.408 238.897 C 230.700 241.881,238.367 254.783,245.856 254.796 C 248.933 254.802,249.804 253.934,249.787 250.881 C 249.750 244.329,241.004 236.494,236.408 238.897 M150.108 239.700 C 145.510 244.676,152.365 258.227,158.826 256.935 C 163.301 256.040,162.684 247.415,157.732 241.629 C 155.228 238.704,151.824 237.842,150.108 239.700 M133.029 243.029 C 132.605 243.338,132.372 243.705,132.510 243.843 C 132.649 243.982,133.062 243.795,133.429 243.429 C 134.291 242.566,134.025 242.300,133.029 243.029 M184.660 258.802 C 181.889 262.095,183.347 270.084,187.472 274.209 C 191.609 278.346,195.595 276.377,195.599 270.194 C 195.603 261.886,188.388 254.371,184.660 258.802 M113.570 259.888 C 112.858 260.686,112.813 260.819,113.398 260.388 C 114.672 259.450,115.286 258.800,114.898 258.800 C 114.701 258.800,114.103 259.290,113.570 259.888 M109.213 263.491 C 108.689 264.082,108.703 264.123,109.346 263.876 C 109.742 263.724,110.141 263.600,110.233 263.600 C 110.325 263.600,110.400 263.420,110.400 263.200 C 110.400 262.612,109.881 262.739,109.213 263.491 M104.456 267.634 C 103.936 268.055,103.666 268.394,103.856 268.387 C 104.344 268.369,105.776 267.243,105.571 267.039 C 105.477 266.945,104.975 267.213,104.456 267.634 M95.300 275.423 C 94.711 276.063,94.662 276.400,95.157 276.400 C 95.498 276.400,96.137 275.196,95.909 274.983 C 95.849 274.927,95.575 275.125,95.300 275.423 M90.460 279.442 C 89.731 280.266,90.200 280.657,90.981 279.876 C 91.321 279.536,91.600 279.154,91.600 279.029 C 91.600 278.609,91.006 278.824,90.460 279.442 M85.612 283.584 C 85.288 283.789,85.144 284.078,85.293 284.226 C 85.441 284.374,85.853 284.204,86.210 283.848 C 86.913 283.144,86.557 282.987,85.612 283.584 M71.243 296.044 C 70.717 296.471,70.390 296.924,70.517 297.050 C 70.644 297.177,71.151 296.904,71.644 296.444 C 72.811 295.358,72.487 295.036,71.243 296.044 M66.200 300.463 C 65.435 301.239,65.290 301.523,65.800 301.246 C 66.916 300.642,68.000 299.760,68.000 299.456 C 68.000 298.927,67.362 299.284,66.200 300.463 M61.832 304.022 C 61.409 304.448,61.186 304.919,61.336 305.069 C 61.590 305.323,63.200 303.896,63.200 303.417 C 63.200 302.990,62.587 303.261,61.832 304.022 " stroke="none" fill="#080405" fill-rule="evenodd"></path><path id="path4" d="M304.570 96.433 C 303.817 97.265,303.818 97.266,304.908 96.769 C 305.508 96.496,306.000 96.120,306.000 95.936 C 306.000 95.347,305.348 95.574,304.570 96.433 M302.400 98.314 C 302.400 98.486,301.860 98.946,301.200 99.336 C 300.540 99.726,300.000 100.307,300.000 100.626 C 300.000 101.085,300.147 101.112,300.700 100.754 C 301.714 100.099,303.337 98.000,302.830 98.000 C 302.594 98.000,302.400 98.141,302.400 98.314 M296.799 103.100 C 296.798 103.265,296.259 103.760,295.600 104.200 C 294.287 105.077,293.993 105.729,295.100 105.309 C 296.359 104.831,298.300 102.804,297.500 102.802 C 297.115 102.801,296.799 102.935,296.799 103.100 M291.358 107.804 C 290.762 108.356,290.399 108.932,290.550 109.083 C 290.702 109.235,291.401 108.783,292.105 108.079 C 293.608 106.577,292.946 106.333,291.358 107.804 M288.023 110.691 C 287.205 111.013,285.473 112.806,285.730 113.064 C 286.007 113.340,287.790 112.011,288.365 111.100 C 288.608 110.715,288.760 110.414,288.703 110.432 C 288.647 110.449,288.340 110.566,288.023 110.691 M281.661 115.947 C 280.761 116.728,280.564 117.200,281.139 117.200 C 281.553 117.200,283.200 115.804,283.200 115.453 C 283.200 114.981,282.526 115.197,281.661 115.947 M276.998 120.002 C 276.598 120.444,276.389 120.923,276.533 121.067 C 276.825 121.358,278.400 120.069,278.400 119.538 C 278.400 118.954,277.752 119.169,276.998 120.002 M272.198 124.002 C 271.073 125.246,271.887 125.495,273.103 124.279 C 273.893 123.489,274.014 123.200,273.553 123.200 C 273.207 123.200,272.597 123.561,272.198 124.002 M268.400 127.573 C 268.400 127.778,268.040 128.060,267.600 128.200 C 266.817 128.449,266.470 129.200,267.139 129.200 C 267.553 129.200,269.200 127.804,269.200 127.453 C 269.200 127.314,269.020 127.200,268.800 127.200 C 268.580 127.200,268.400 127.368,268.400 127.573 M263.600 131.573 C 263.600 131.778,263.240 132.060,262.800 132.200 C 261.993 132.456,261.678 133.200,262.378 133.200 C 263.148 133.200,265.057 131.226,264.300 131.213 C 263.915 131.206,263.600 131.368,263.600 131.573 M259.824 134.924 C 258.628 135.657,257.113 137.200,257.588 137.200 C 257.821 137.200,258.684 136.575,259.506 135.811 C 261.058 134.368,261.150 134.109,259.824 134.924 M254.800 139.117 C 254.078 139.367,252.800 140.769,252.800 141.310 C 252.800 141.720,253.706 141.117,254.940 139.886 C 255.760 139.068,255.711 138.802,254.800 139.117 M249.323 143.678 C 248.462 144.094,247.802 145.135,248.167 145.500 C 248.269 145.602,248.948 145.127,249.676 144.445 C 251.023 143.182,250.901 142.915,249.323 143.678 M244.218 148.218 C 243.587 148.760,243.178 149.311,243.309 149.443 C 243.440 149.574,244.046 149.219,244.655 148.655 C 246.097 147.317,245.713 146.933,244.218 148.218 M239.197 152.403 C 238.688 152.844,238.378 153.312,238.509 153.442 C 238.776 153.710,240.768 152.362,240.787 151.900 C 240.810 151.369,240.147 151.579,239.197 152.403 M255.062 153.900 C 254.960 154.065,256.553 154.200,258.600 154.200 C 260.648 154.200,262.116 154.068,261.862 153.906 C 261.253 153.519,255.301 153.513,255.062 153.900 M252.636 155.631 C 250.978 157.601,251.522 160.255,254.099 162.775 C 255.500 164.145,259.376 166.150,260.105 165.881 C 260.377 165.781,260.060 165.560,259.400 165.391 C 253.904 163.981,250.274 157.865,253.433 155.337 C 254.075 154.824,254.391 154.403,254.136 154.402 C 253.880 154.401,253.205 154.954,252.636 155.631 M263.200 154.800 C 263.530 155.013,264.029 155.191,264.309 155.194 C 265.590 155.209,268.737 157.682,270.177 159.804 C 271.555 161.834,271.496 163.243,269.969 164.769 C 269.292 165.446,268.916 166.000,269.134 166.000 C 269.837 166.000,271.600 163.566,271.600 162.595 C 271.600 160.102,269.142 157.052,265.822 155.428 C 263.734 154.407,261.918 153.972,263.200 154.800 M234.461 156.347 C 233.561 157.128,233.364 157.600,233.939 157.600 C 234.353 157.600,236.000 156.204,236.000 155.853 C 236.000 155.381,235.326 155.597,234.461 156.347 M231.600 159.200 C 231.600 159.420,231.412 159.600,231.183 159.600 C 230.596 159.600,229.008 161.141,229.297 161.430 C 229.429 161.562,230.225 161.029,231.068 160.246 C 231.911 159.462,232.375 158.817,232.100 158.811 C 231.825 158.805,231.600 158.980,231.600 159.200 M227.200 163.000 C 226.926 163.330,226.537 163.600,226.334 163.600 C 225.812 163.600,224.215 165.148,224.472 165.405 C 224.847 165.781,225.768 165.169,226.939 163.765 C 227.566 163.014,227.993 162.400,227.888 162.400 C 227.784 162.400,227.474 162.670,227.200 163.000 M261.062 166.500 C 261.164 166.665,262.756 166.800,264.600 166.800 C 266.444 166.800,268.036 166.665,268.138 166.500 C 268.240 166.335,266.648 166.200,264.600 166.200 C 262.552 166.200,260.960 166.335,261.062 166.500 M220.400 168.600 C 219.183 169.896,219.931 169.896,221.438 168.600 C 222.234 167.915,222.402 167.601,221.970 167.600 C 221.623 167.600,220.917 168.050,220.400 168.600 M217.223 171.491 C 216.413 171.810,214.675 173.600,215.176 173.600 C 215.402 173.600,216.175 173.065,216.894 172.412 C 218.217 171.208,218.262 171.081,217.223 171.491 M211.976 175.886 C 210.936 176.598,210.416 177.203,210.406 177.716 C 210.403 177.889,210.625 177.841,210.900 177.608 C 211.175 177.376,211.834 176.827,212.364 176.390 C 213.582 175.386,213.280 174.994,211.976 175.886 M207.176 179.891 C 206.124 180.616,205.178 181.711,205.406 181.940 C 205.484 182.017,205.784 181.879,206.074 181.633 C 206.363 181.387,207.034 180.827,207.564 180.390 C 208.783 179.384,208.479 178.993,207.176 179.891 M203.200 183.533 C 203.200 183.790,202.958 184.000,202.662 184.000 C 202.064 184.000,200.563 185.496,200.861 185.794 C 200.965 185.898,201.669 185.465,202.425 184.831 C 203.181 184.197,203.665 183.540,203.500 183.372 C 203.335 183.204,203.200 183.277,203.200 183.533 M198.881 187.218 C 198.613 187.648,198.165 188.000,197.886 188.000 C 197.293 188.000,195.844 189.577,196.153 189.886 C 196.268 190.001,197.131 189.364,198.071 188.471 C 199.010 187.577,199.687 186.753,199.574 186.641 C 199.462 186.528,199.150 186.788,198.881 187.218 M224.392 189.447 C 222.696 190.501,221.548 195.026,222.783 195.789 C 223.016 195.934,223.085 195.280,222.959 194.113 C 222.595 190.741,224.503 188.911,227.800 189.470 C 236.601 190.961,242.631 205.610,234.438 205.596 C 230.611 205.590,226.549 202.563,224.111 197.900 C 223.622 196.965,223.217 196.495,223.211 196.855 C 223.205 197.215,223.854 198.475,224.654 199.655 C 230.268 207.936,239.384 208.680,238.679 200.800 C 238.068 193.981,228.866 186.668,224.392 189.447 M193.538 191.713 C 193.175 191.981,192.500 192.465,192.038 192.788 C 191.182 193.389,190.930 194.000,191.539 194.000 C 191.922 194.000,193.128 192.949,193.950 191.900 C 194.587 191.086,194.465 191.030,193.538 191.713 M260.955 191.819 C 253.397 195.631,265.648 211.452,273.335 207.804 C 275.295 206.874,275.945 204.882,275.190 202.120 C 273.456 195.773,265.101 189.727,260.955 191.819 M264.554 192.078 C 273.920 194.796,279.221 207.874,270.911 207.761 C 261.834 207.638,254.434 192.999,262.754 191.625 C 262.838 191.611,263.648 191.815,264.554 192.078 M188.238 196.200 C 187.599 196.750,186.924 197.200,186.738 197.200 C 186.552 197.200,186.400 197.380,186.400 197.600 C 186.400 198.323,187.089 198.021,188.656 196.609 C 190.405 195.034,190.026 194.663,188.238 196.200 M182.996 200.585 C 181.833 201.594,181.633 201.910,182.260 201.749 C 183.162 201.517,185.626 199.200,184.970 199.200 C 184.762 199.200,183.873 199.823,182.996 200.585 M179.632 203.500 C 179.614 203.775,179.407 204.000,179.171 204.000 C 178.722 204.000,177.600 204.979,177.600 205.371 C 177.600 205.867,178.442 205.558,179.225 204.775 C 179.679 204.321,179.963 203.736,179.857 203.475 C 179.714 203.125,179.655 203.132,179.632 203.500 M173.957 208.356 C 173.430 208.782,173.140 209.272,173.311 209.443 C 173.482 209.615,174.012 209.366,174.489 208.889 C 175.614 207.764,175.199 207.348,173.957 208.356 M169.206 212.382 C 168.659 212.802,168.350 213.283,168.518 213.451 C 168.686 213.620,169.310 213.272,169.903 212.679 C 171.141 211.441,170.684 211.246,169.206 212.382 M192.887 215.824 C 187.024 219.931,195.256 235.561,202.354 233.800 C 203.777 233.447,205.207 232.040,205.168 231.030 C 205.141 230.300,205.092 230.320,204.767 231.205 C 204.269 232.556,202.977 233.297,201.161 233.272 C 193.871 233.171,187.769 218.468,193.891 215.756 C 194.501 215.486,194.725 215.250,194.389 215.232 C 194.053 215.215,193.377 215.481,192.887 215.824 M196.000 215.562 C 196.330 215.796,196.900 215.991,197.268 215.994 C 198.334 216.004,202.126 219.736,203.147 221.780 C 203.661 222.809,204.164 223.569,204.265 223.469 C 204.485 223.248,203.348 221.084,202.073 219.299 C 200.950 217.726,198.148 215.740,196.561 215.391 C 195.676 215.196,195.543 215.237,196.000 215.562 M165.200 215.973 C 165.200 216.178,164.840 216.460,164.400 216.600 C 163.617 216.849,163.270 217.600,163.939 217.600 C 164.353 217.600,166.000 216.204,166.000 215.853 C 166.000 215.714,165.820 215.600,165.600 215.600 C 165.380 215.600,165.200 215.768,165.200 215.973 M159.901 220.364 C 158.833 220.982,158.452 221.600,159.139 221.600 C 159.568 221.600,161.385 220.041,161.164 219.862 C 161.074 219.789,160.505 220.015,159.901 220.364 M156.800 223.133 C 156.800 223.390,156.612 223.600,156.383 223.600 C 155.714 223.600,153.877 225.477,154.294 225.735 C 154.762 226.024,157.451 223.318,157.073 222.939 C 156.923 222.789,156.800 222.877,156.800 223.133 M204.446 224.400 C 204.465 224.730,204.624 225.450,204.800 226.000 L 205.120 227.000 205.154 226.000 C 205.173 225.450,205.013 224.730,204.800 224.400 C 204.455 223.867,204.416 223.867,204.446 224.400 M151.542 227.533 C 151.180 227.900,150.400 228.605,149.808 229.100 C 149.216 229.595,148.972 229.994,149.266 229.987 C 149.888 229.972,150.619 229.405,151.970 227.889 C 153.008 226.723,152.641 226.419,151.542 227.533 M205.301 228.600 C 205.305 229.480,205.387 229.793,205.483 229.295 C 205.579 228.798,205.575 228.078,205.475 227.695 C 205.375 227.313,205.296 227.720,205.301 228.600 M145.675 232.416 C 144.857 233.178,144.518 234.000,145.022 234.000 C 145.144 234.000,145.819 233.461,146.522 232.802 C 147.384 231.993,147.597 231.603,147.175 231.602 C 146.832 231.601,146.157 231.967,145.675 232.416 M140.596 237.007 C 139.685 237.810,139.343 238.292,139.800 238.129 C 140.758 237.787,143.173 235.604,142.596 235.602 C 142.373 235.601,141.473 236.233,140.596 237.007 M151.000 238.471 C 149.609 239.249,148.789 240.343,148.588 241.692 L 148.392 243.000 148.847 241.800 C 151.262 235.429,158.680 239.516,161.554 248.800 L 161.988 250.200 161.825 248.739 C 161.190 243.023,154.392 236.576,151.000 238.471 M235.231 239.231 C 231.935 242.527,235.726 251.004,241.970 254.300 C 244.340 255.551,247.957 255.565,249.038 254.328 L 249.800 253.455 248.811 254.128 C 244.047 257.366,234.762 250.018,234.642 242.913 C 234.585 239.514,235.469 238.577,238.661 238.654 C 240.062 238.687,240.692 238.577,240.349 238.360 C 239.038 237.530,236.500 237.961,235.231 239.231 M241.400 239.200 C 241.536 239.420,241.905 239.600,242.220 239.600 C 243.095 239.600,247.750 244.400,248.556 246.132 C 249.314 247.763,249.720 247.945,249.337 246.483 C 249.211 245.997,248.948 245.600,248.753 245.600 C 248.559 245.600,248.400 245.375,248.400 245.100 C 248.400 244.396,245.732 241.576,243.640 240.068 C 241.891 238.808,240.927 238.434,241.400 239.200 M135.997 240.803 C 135.488 241.244,135.178 241.712,135.309 241.842 C 135.576 242.110,137.568 240.762,137.587 240.300 C 137.610 239.769,136.947 239.979,135.997 240.803 M131.300 244.777 C 130.363 245.559,130.160 246.000,130.739 246.000 C 131.153 246.000,132.800 244.604,132.800 244.253 C 132.800 243.806,132.223 244.007,131.300 244.777 M148.599 247.023 C 148.783 248.633,149.922 251.412,150.259 251.074 C 150.355 250.978,150.172 250.292,149.851 249.550 C 149.530 248.807,149.075 247.570,148.841 246.800 L 148.414 245.400 148.599 247.023 M126.598 248.802 C 126.198 249.244,125.989 249.723,126.133 249.867 C 126.425 250.158,128.000 248.869,128.000 248.338 C 128.000 247.754,127.352 247.969,126.598 248.802 M249.762 250.538 C 249.783 251.958,249.935 253.038,250.100 252.937 C 250.506 252.688,250.471 249.131,250.056 248.477 C 249.863 248.172,249.740 249.031,249.762 250.538 M150.413 251.759 C 150.393 252.319,153.094 255.470,154.377 256.383 C 157.364 258.510,162.071 256.996,161.968 253.940 C 161.940 253.099,161.893 253.126,161.516 254.200 C 159.942 258.691,155.148 257.777,151.018 252.200 C 150.692 251.760,150.420 251.561,150.413 251.759 M121.867 252.867 C 120.732 254.105,121.486 254.296,122.703 253.079 C 123.408 252.374,123.577 252.012,123.191 252.033 C 122.866 252.052,122.270 252.427,121.867 252.867 M118.000 256.373 C 118.000 256.578,117.640 256.860,117.200 257.000 C 116.760 257.140,116.400 257.422,116.400 257.627 C 116.400 258.258,117.023 258.045,118.238 257.000 C 119.140 256.224,119.244 256.001,118.700 256.000 C 118.315 256.000,118.000 256.168,118.000 256.373 M185.557 257.399 C 182.953 258.814,181.967 265.351,183.756 269.343 C 184.600 271.228,185.036 271.065,184.244 269.161 C 181.986 263.731,183.585 257.600,187.259 257.600 C 188.216 257.600,188.749 257.441,188.600 257.200 C 188.251 256.635,186.786 256.731,185.557 257.399 M190.700 259.007 C 197.191 264.563,197.366 277.310,190.936 276.267 C 190.137 276.138,189.677 276.202,189.815 276.424 C 190.710 277.872,194.493 276.277,195.464 274.041 C 197.547 269.244,193.308 257.600,189.479 257.600 C 189.246 257.600,189.796 258.233,190.700 259.007 M112.600 260.988 C 111.940 261.529,111.615 261.978,111.878 261.986 C 112.140 261.994,112.860 261.556,113.478 261.013 C 114.939 259.727,114.165 259.705,112.600 260.988 M109.223 263.891 C 108.370 264.227,106.759 265.929,107.103 266.130 C 107.267 266.226,108.030 265.696,108.800 264.954 C 110.218 263.587,110.259 263.482,109.223 263.891 M103.905 268.364 C 102.925 268.932,102.184 269.917,102.499 270.232 C 102.564 270.297,103.225 269.819,103.969 269.169 C 105.526 267.810,105.496 267.441,103.905 268.364 M184.813 271.407 C 184.795 271.988,188.373 276.000,188.909 276.000 C 189.155 276.000,188.730 275.415,187.965 274.700 C 187.200 273.985,186.180 272.860,185.699 272.200 C 185.219 271.540,184.820 271.183,184.813 271.407 M98.738 272.738 C 98.003 273.396,97.525 274.058,97.676 274.210 C 97.828 274.361,98.541 273.935,99.262 273.262 C 100.971 271.664,100.485 271.178,98.738 272.738 M93.597 277.203 C 93.088 277.644,92.796 278.129,92.948 278.281 C 93.100 278.433,93.710 278.072,94.303 277.479 C 95.550 276.232,94.975 276.007,93.597 277.203 M88.861 281.147 C 87.961 281.928,87.764 282.400,88.339 282.400 C 88.753 282.400,90.400 281.004,90.400 280.653 C 90.400 280.181,89.726 280.397,88.861 281.147 M84.800 284.773 C 84.800 284.978,84.440 285.260,84.000 285.400 C 83.217 285.649,82.870 286.400,83.539 286.400 C 83.953 286.400,85.600 285.004,85.600 284.653 C 85.600 284.514,85.420 284.400,85.200 284.400 C 84.980 284.400,84.800 284.568,84.800 284.773 " stroke="none" fill="#a41d38" fill-rule="evenodd"></path></g></svg>